<?xml version="1.0" encoding="utf-8"?>
<!-- Generator: Adobe Illustrator 16.0.0, SVG Export Plug-In . SVG Version: 6.00 Build 0)  -->
<!DOCTYPE svg PUBLIC "-//W3C//DTD SVG 1.1//EN" "http://www.w3.org/Graphics/SVG/1.1/DTD/svg11.dtd">
<svg version="1.1" xmlns="http://www.w3.org/2000/svg" xmlns:xlink="http://www.w3.org/1999/xlink" x="0px" y="0px" width="960px"
	 height="560px" viewBox="0 0 960 560" style="enable-background:new 0 0 960 560;" xml:space="preserve">
<style type="text/css">
<![CDATA[
	.st0{fill:#1E204E;}
	.st1{fill:none;stroke:#000000;stroke-width:4;stroke-miterlimit:10;}
	.st2{fill:#F4DE9F;}
	.st3{fill:#285B5A;}
	.st4{fill:#FACF46;}
	.st5{fill:#63C7C5;}
	.st6{fill:#7EC247;stroke:#000000;stroke-width:4;stroke-miterlimit:10;}
]]>
</style>
<g id="background">
	<path class="st0" d="M562,390c0,6.627-5.373,12-12,12H47c-6.627,0-12-5.373-12-12V46c0-6.627,5.373-12,12-12h503
		c6.627,0,12,5.373,12,12V390z"/>
	<path class="st1" d="M195.304,159.789"/>
	<path class="st1" d="M158.733,136.898"/>
</g>
<g id="constellation">
	<line class="st6" x1="112.91" y1="86.821" x2="140.433" y2="98.047"/>
	<line class="st1" x1="147.733" y1="102.898" x2="158.708" y2="131.667"/>
	<line class="st1" x1="160.733" y1="137.898" x2="197.304" y2="160.789"/>
	<line class="st1" x1="199.45" y1="166" x2="199.708" y2="194.667"/>
	<line class="st1" x1="201.733" y1="200.898" x2="239.433" y2="209.047"/>
	<line class="st1" x1="260.433" y1="174.047" x2="203.744" y2="162.881"/>
	<line class="st1" x1="245.758" y1="204.539" x2="260.684" y2="177.898"/>
</g>
<g id="planet">
	<circle class="st5" cx="129.001" cy="313.335" r="43.333"/>
	<path class="st3" d="M207.663,282.293c-1.662-3.813-18.127-0.6-41.237,7.336l1.114,2.738c0.048,0.119,0.082,0.24,0.125,0.359
		c11.209-3.331,18.633-4.389,19.516-2.361c1.729,3.967-22.201,18.219-53.447,31.834s-57.977,21.438-59.706,17.472
		c-0.883-2.027,4.949-6.746,15.026-12.69c-0.455-0.676-0.85-1.406-1.169-2.19l-0.212-0.521
		c-19.74,10.799-31.938,19.909-30.357,23.537c2.489,5.712,38.164-4.322,79.681-22.413
		C178.514,307.303,210.152,288.006,207.663,282.293z"/>
</g>
<g id="ship">
	
		<image style="overflow:visible;" width="300" height="300" xlink:href="spaceship.png"  transform="matrix(0.9998 -0.0122 0.0122 0.9998 215.042 69.8584)">
	</image>
</g>
<g id="stars">
	<polygon class="st4" points="470.667,141 476.545,137.91 475.423,144.456 480.178,149.091 473.606,150.045 470.667,156 
		467.729,150.045 461.157,149.091 465.912,144.456 464.79,137.91 	"/>
	<polygon class="st4" points="288.667,84 294.545,80.91 293.423,87.456 298.178,92.091 291.606,93.045 288.667,99 285.729,93.045 
		279.157,92.091 283.912,87.456 282.79,80.91 	"/>
	<polygon class="st4" points="350.667,343 356.545,339.91 355.423,346.455 360.178,351.091 353.606,352.045 350.667,358 
		347.729,352.045 341.157,351.091 345.912,346.455 344.79,339.91 	"/>
	<polygon class="st4" points="90.667,220 96.545,216.91 95.423,223.455 100.178,228.091 93.606,229.045 90.667,235 87.729,229.045 
		81.157,228.091 85.912,223.455 84.79,216.91 	"/>
	<polygon class="st2" points="163.667,229 169.545,225.91 168.423,232.455 173.178,237.091 166.606,238.045 163.667,244 
		160.729,238.045 154.157,237.091 158.912,232.455 157.79,225.91 	"/>
	<polygon class="st2" points="274.667,330 280.545,326.91 279.423,333.455 284.178,338.091 277.606,339.045 274.667,345 
		271.729,339.045 265.157,338.091 269.912,333.455 268.79,326.91 	"/>
	<polygon class="st2" points="532.668,198 538.545,194.91 537.423,201.455 542.178,206.091 535.606,207.045 532.668,213 
		529.729,207.045 523.156,206.091 527.912,201.455 526.789,194.91 	"/>
	<polygon class="st2" points="432.668,366 438.545,362.91 437.423,369.455 442.178,374.091 435.606,375.045 432.668,381 
		429.729,375.045 423.156,374.091 427.912,369.455 426.789,362.91 	"/>
	<polygon class="st2" points="336.668,126 342.545,122.91 341.423,129.455 346.178,134.091 339.606,135.045 336.668,141 
		333.729,135.045 327.156,134.091 331.912,129.455 330.789,122.91 	"/>
	<polygon class="st2" points="201.668,61 207.545,57.91 206.423,64.455 211.178,69.091 204.606,70.045 201.668,76 198.729,70.045 
		192.156,69.091 196.912,64.455 195.789,57.91 	"/>
	<polygon class="st4" points="90.667,135 96.545,131.91 95.423,138.455 100.178,143.091 93.606,144.045 90.667,150 87.729,144.045 
		81.157,143.091 85.912,138.455 84.79,131.91 	"/>
	<polygon class="st4" points="451.667,268 457.545,264.91 456.423,271.456 461.178,276.091 454.606,277.045 451.667,283 
		448.729,277.045 442.157,276.091 446.912,271.456 445.79,264.91 	"/>
	<polygon class="st4" points="261.708,170.667 265.758,168.539 264.984,173.047 268.26,176.241 263.733,176.898 261.708,181 
		259.684,176.898 255.157,176.241 258.433,173.047 257.659,168.539 	"/>
	<polygon class="st4" points="240.708,205.667 244.758,203.539 243.984,208.047 247.26,211.241 242.733,211.898 240.708,216 
		238.684,211.898 234.157,211.241 237.433,208.047 236.659,203.539 	"/>
	<polygon class="st4" points="197.45,158.229 200.104,156.834 199.597,159.789 201.744,161.881 198.777,162.312 197.45,165 
		196.124,162.312 193.157,161.881 195.304,159.789 194.797,156.834 	"/>
	<polygon class="st4" points="143.708,95.667 147.758,93.539 146.984,98.047 150.26,101.241 145.733,101.898 143.708,106 
		141.684,101.898 137.157,101.241 140.433,98.047 139.659,93.539 	"/>
	<polygon class="st4" points="108.534,83.098 111.239,81.676 110.722,84.688 112.91,86.821 109.886,87.26 108.534,90 107.181,87.26 
		104.157,86.821 106.345,84.688 105.829,81.676 	"/>
	<polygon class="st4" points="197.708,193.667 201.758,191.539 200.984,196.047 204.26,199.241 199.733,199.898 197.708,204 
		195.684,199.898 191.157,199.241 194.433,196.047 193.659,191.539 	"/>
	<polygon class="st4" points="156.708,130.667 160.758,128.539 159.984,133.047 163.26,136.241 158.733,136.898 156.708,141 
		154.684,136.898 150.157,136.241 153.433,133.047 152.659,128.539 	"/>
	<polygon class="st4" points="493.668,316 499.545,312.91 498.423,319.455 503.178,324.091 496.606,325.045 493.668,331 
		490.729,325.045 484.156,324.091 488.912,319.455 487.789,312.91 	"/>
	<g>
	</g>
	<g>
	</g>
	<g>
	</g>
	<g>
	</g>
	<g>
	</g>
	<g>
	</g>
	<g>
	</g>
	<g>
	</g>
	<g>
	</g>
	<g>
	</g>
	<g>
	</g>
	<g>
	</g>
	<g>
	</g>
	<g>
	</g>
	<g>
	</g>
</g>
</svg>
